<?xml version="1.0" ?><svg id="Capa_1" style="enable-background:new 0 0 512 512;" version="1.1" viewBox="0 0 512 512" xml:space="preserve" xmlns="http://www.w3.org/2000/svg" xmlns:xlink="http://www.w3.org/1999/xlink"><style type="text/css">
	.st0{fill:#232323;}
</style><g><path class="st0" d="M255.3,0.3C114.2,0.3-0.6,115.1-0.6,256.3s114.8,255.9,255.9,255.9c64.5,0,126.1-24.1,173.5-67.8   c4.5-4.2,4.8-11.2,0.6-15.7c-4.2-4.5-11.2-4.8-15.7-0.6C370.5,468,314.3,490,255.3,490C126.5,490,21.6,385.1,21.6,256.3   S126.5,22.5,255.3,22.5c128.9,0,233.7,104.9,233.7,233.7c0,43.7-12.1,86.3-35,123.2c-3.2,5.2-1.6,12,3.6,15.3   c5.2,3.2,12,1.6,15.3-3.6c25.1-40.4,38.4-87.1,38.4-134.9C511.3,115.1,396.5,0.3,255.3,0.3z"/><path class="st0" d="M362.1,149.9c-4.3-4.3-11.3-4.3-15.7,0l-92.9,92.9l-92.9-92.9c-4.3-4.3-11.3-4.3-15.7,0   c-4.3,4.3-4.3,11.4,0,15.7l92.9,92.9L145,351.3c-4.3,4.3-4.3,11.4,0,15.7c2.2,2.2,5,3.2,7.8,3.2s5.7-1.1,7.8-3.2l92.9-92.9   l92.9,92.9c2.2,2.2,5,3.2,7.8,3.2c2.8,0,5.7-1.1,7.8-3.2c4.3-4.3,4.3-11.4,0-15.7l-92.9-92.9l92.9-92.9   C366.4,161.2,366.4,154.2,362.1,149.9z"/></g></svg>